# Blender v2.93.5 OBJ File: ''
# www.blender.org
mtllib sphere.mtl
o Sphere_Cube
v 0.500000 0.500000 -0.500000
v 0.500000 -0.500000 -0.500000
v 0.500000 0.500000 0.500000
v 0.500000 -0.500000 0.500000
v -0.500000 0.500000 -0.500000
v -0.500000 -0.500000 -0.500000
v -0.500000 0.500000 0.500000
v -0.500000 -0.500000 0.500000
v -0.609568 -0.609568 -0.000000
v 0.000000 -0.609568 -0.609568
v 0.609568 0.000000 -0.609568
v -0.609568 -0.000000 0.609568
v 0.609568 0.000000 0.609568
v -0.609568 -0.000000 -0.609568
v -0.000000 0.609568 0.609568
v 0.609568 0.609568 0.000000
v -0.000000 -0.609568 0.609568
v -0.609568 0.609568 -0.000000
v 0.000000 0.609568 -0.609568
v 0.609568 -0.609568 0.000000
v -0.000000 0.839506 -0.000000
v 0.000000 0.000000 0.839506
v -0.839506 0.000000 -0.000000
v 0.000000 -0.839506 0.000000
v 0.839506 0.000000 -0.000000
v 0.000000 0.000000 -0.839506
vt 0.625000 0.500000
vt 0.750000 0.625000
vt 0.625000 0.625000
vt 0.875000 0.500000
vt 0.750000 0.500000
vt 0.875000 0.750000
vt 0.750000 0.750000
vt 0.625000 0.750000
vt 0.375000 0.750000
vt 0.500000 0.875000
vt 0.375000 0.875000
vt 0.500000 0.750000
vt 0.625000 1.000000
vt 0.500000 1.000000
vt 0.375000 1.000000
vt 0.375000 0.000000
vt 0.500000 0.125000
vt 0.375000 0.125000
vt 0.625000 0.000000
vt 0.500000 0.000000
vt 0.625000 0.250000
vt 0.500000 0.250000
vt 0.375000 0.250000
vt 0.125000 0.500000
vt 0.250000 0.625000
vt 0.125000 0.625000
vt 0.375000 0.500000
vt 0.250000 0.500000
vt 0.250000 0.750000
vt 0.125000 0.750000
vt 0.500000 0.625000
vt 0.375000 0.625000
vt 0.500000 0.500000
vt 0.500000 0.375000
vt 0.375000 0.375000
vt 0.875000 0.625000
vt 0.625000 0.875000
vt 0.625000 0.125000
vt 0.625000 0.375000
vn 0.3397 0.9004 -0.2717
vn -0.2717 0.9004 -0.3397
vn -0.2717 0.9004 0.3397
vn 0.3397 0.9004 0.2717
vn 0.2717 -0.3397 0.9004
vn 0.3397 0.2717 0.9004
vn -0.3397 0.2717 0.9004
vn -0.2717 -0.3397 0.9004
vn -0.9004 -0.3397 0.2717
vn -0.9004 0.2717 0.3397
vn -0.9004 0.2717 -0.3397
vn -0.9004 -0.3397 -0.2717
vn -0.3397 -0.9004 -0.2717
vn 0.2717 -0.9004 -0.3397
vn 0.2717 -0.9004 0.3397
vn -0.3397 -0.9004 0.2717
vn 0.9004 -0.3397 -0.2717
vn 0.9004 0.2717 -0.3397
vn 0.9004 0.2717 0.3397
vn 0.9004 -0.3397 0.2717
vn -0.2717 -0.3397 -0.9004
vn -0.3397 0.2717 -0.9004
vn 0.3397 0.2717 -0.9004
vn 0.2717 -0.3397 -0.9004
vn 0.2717 0.9004 -0.3397
vn -0.3397 0.9004 -0.2717
vn -0.3397 0.9004 0.2717
vn 0.2717 0.9004 0.3397
vn 0.3397 -0.2717 0.9004
vn 0.2717 0.3397 0.9004
vn -0.2717 0.3397 0.9004
vn -0.3397 -0.2717 0.9004
vn -0.9004 -0.2717 0.3397
vn -0.9004 0.3397 0.2717
vn -0.9004 0.3397 -0.2717
vn -0.9004 -0.2717 -0.3397
vn -0.2717 -0.9004 -0.3397
vn 0.3397 -0.9004 -0.2717
vn 0.3397 -0.9004 0.2717
vn -0.2717 -0.9004 0.3397
vn 0.9004 -0.2717 -0.3397
vn 0.9004 0.3397 -0.2717
vn 0.9004 0.3397 0.2717
vn 0.9004 -0.2717 0.3397
vn -0.3397 -0.2717 -0.9004
vn -0.2717 0.3397 -0.9004
vn 0.2717 0.3397 -0.9004
vn 0.3397 -0.2717 -0.9004
usemtl Material
s off
f 1/1/1 21/2/1 16/3/1
f 5/4/2 21/2/2 19/5/2
f 21/2/3 7/6/3 15/7/3
f 21/2/4 3/8/4 16/3/4
f 4/9/5 22/10/5 17/11/5
f 3/8/6 22/10/6 13/12/6
f 22/10/7 7/13/7 12/14/7
f 22/10/8 8/15/8 17/11/8
f 8/16/9 23/17/9 9/18/9
f 7/19/10 23/17/10 12/20/10
f 23/17/11 5/21/11 14/22/11
f 23/17/12 6/23/12 9/18/12
f 6/24/13 24/25/13 9/26/13
f 2/27/14 24/25/14 10/28/14
f 24/25/15 4/9/15 17/29/15
f 24/25/16 8/30/16 9/26/16
f 2/27/17 25/31/17 20/32/17
f 1/1/18 25/31/18 11/33/18
f 25/31/19 3/8/19 13/12/19
f 25/31/20 4/9/20 20/32/20
f 6/23/21 26/34/21 10/35/21
f 5/21/22 26/34/22 14/22/22
f 26/34/23 1/1/23 11/33/23
f 26/34/24 2/27/24 10/35/24
f 1/1/25 19/5/25 21/2/25
f 5/4/26 18/36/26 21/2/26
f 21/2/27 18/36/27 7/6/27
f 21/2/28 15/7/28 3/8/28
f 4/9/29 13/12/29 22/10/29
f 3/8/30 15/37/30 22/10/30
f 22/10/31 15/37/31 7/13/31
f 22/10/32 12/14/32 8/15/32
f 8/16/33 12/20/33 23/17/33
f 7/19/34 18/38/34 23/17/34
f 23/17/35 18/38/35 5/21/35
f 23/17/36 14/22/36 6/23/36
f 6/24/37 10/28/37 24/25/37
f 2/27/38 20/32/38 24/25/38
f 24/25/39 20/32/39 4/9/39
f 24/25/40 17/29/40 8/30/40
f 2/27/41 11/33/41 25/31/41
f 1/1/42 16/3/42 25/31/42
f 25/31/43 16/3/43 3/8/43
f 25/31/44 13/12/44 4/9/44
f 6/23/45 14/22/45 26/34/45
f 5/21/46 19/39/46 26/34/46
f 26/34/47 19/39/47 1/1/47
f 26/34/48 11/33/48 2/27/48
